<?xml version="1.0" standalone="no"?>
<!DOCTYPE svg PUBLIC "-//W3C//DTD SVG 20010904//EN"
 "http://www.w3.org/TR/2001/REC-SVG-20010904/DTD/svg10.dtd">
<svg version="1.0" xmlns="http://www.w3.org/2000/svg"
 width="160.000000pt" height="40.000000pt" viewBox="0 0 160.000000 40.000000"
 preserveAspectRatio="xMidYMid meet">

<g transform="translate(0.000000,40.000000) scale(0.100000,-0.100000)"
fill="#000000" stroke="none">
<path d="M98 309 c-43 -33 -78 -62 -78 -65 0 -3 5 -2 10 1 6 4 10 -25 10 -79
0 -85 0 -86 25 -86 22 0 25 4 25 38 0 58 19 76 86 82 55 5 58 6 66 38 12 44
28 40 28 -7 0 -30 -5 -42 -25 -55 -20 -13 -25 -25 -25 -56 l0 -40 50 0 50 0 0
86 c0 54 4 83 10 79 6 -3 10 -4 10 -1 0 7 -150 126 -159 126 -3 0 -41 -27 -83
-61z m92 -44 c20 -25 8 -50 -25 -50 -31 0 -43 20 -31 51 7 18 40 18 56 -1z"/>
<path d="M1200 216 c0 -8 -6 -16 -12 -19 -10 -3 -10 -7 -1 -18 6 -8 13 -35 15
-59 2 -38 7 -46 26 -48 12 -2 22 1 22 7 0 6 -7 11 -15 11 -11 0 -15 12 -15 45
0 33 4 45 15 45 8 0 15 5 15 10 0 6 -7 10 -15 10 -8 0 -15 7 -15 15 0 8 -4 15
-10 15 -5 0 -10 -6 -10 -14z"/>
<path d="M370 180 c-24 -24 -26 -57 -4 -88 19 -28 65 -29 89 -2 20 22 6 27
-24 8 -22 -14 -51 -4 -51 17 0 11 11 15 45 15 37 0 45 3 45 18 0 25 -31 52
-58 52 -12 0 -31 -9 -42 -20z m68 -12 c20 -20 14 -28 -23 -28 -24 0 -35 5 -35
14 0 24 39 33 58 14z"/>
<path d="M490 133 c0 -49 3 -63 15 -63 11 0 15 12 15 49 0 54 9 66 40 56 16
-5 20 -15 20 -56 0 -36 4 -49 14 -49 11 0 16 15 18 53 3 48 5 52 28 52 23 0
25 -4 28 -52 2 -38 7 -53 18 -53 24 0 19 92 -7 115 -17 16 -24 17 -51 7 -18
-7 -36 -8 -42 -3 -6 5 -30 8 -53 8 l-43 -2 0 -62z"/>
<path d="M720 105 c0 -78 3 -95 15 -95 10 0 15 11 15 35 0 33 1 34 30 28 40
-8 70 19 70 62 0 50 -56 85 -87 54 -8 -8 -13 -8 -17 0 -18 29 -26 3 -26 -84z
m94 59 c9 -8 16 -22 16 -29 0 -17 -27 -45 -44 -45 -32 0 -48 54 -24 78 16 16
33 15 52 -4z"/>
<path d="M870 135 c0 -37 4 -65 10 -65 6 0 10 15 10 34 0 44 9 66 26 66 8 0
14 7 14 15 0 18 -12 19 -28 3 -9 -9 -12 -9 -12 0 0 7 -4 12 -10 12 -6 0 -10
-28 -10 -65z"/>
<path d="M957 182 c-22 -25 -21 -75 1 -95 23 -21 66 -22 82 -2 18 21 6 29 -19
13 -15 -9 -26 -10 -37 -3 -28 18 -16 30 31 33 35 2 45 7 45 21 0 45 -72 68
-103 33z m71 -24 c3 -14 -3 -18 -27 -18 -29 0 -41 17 -24 34 13 13 48 1 51
-16z"/>
<path d="M1085 184 c-18 -19 -16 -34 8 -46 9 -4 25 -12 35 -17 24 -11 21 -25
-5 -29 -13 -2 -23 1 -23 7 0 6 -7 11 -15 11 -13 0 -14 -4 -5 -20 12 -23 59
-27 78 -8 23 23 13 46 -23 58 -38 12 -48 40 -15 40 11 0 20 -4 20 -10 0 -5 7
-10 15 -10 18 0 19 12 3 28 -17 17 -54 15 -73 -4z"/>
<path d="M1277 182 c-48 -53 21 -150 71 -100 9 9 12 9 12 0 0 -7 7 -12 15 -12
12 0 15 14 15 65 0 51 -3 65 -15 65 -8 0 -15 -5 -15 -12 0 -9 -3 -9 -12 0 -18
18 -53 15 -71 -6z m71 -14 c7 -7 12 -21 12 -33 0 -43 -50 -62 -70 -26 -14 27
-13 37 6 55 19 19 36 20 52 4z"/>
<path d="M122 110 c0 -19 2 -27 5 -17 2 9 2 25 0 35 -3 9 -5 1 -5 -18z"/>
</g>
</svg>
